<?xml version="1.0" encoding="UTF-8"?>
<svg version="1.1" xmlns="http://www.w3.org/2000/svg" width="512" height="512">
<path d="M0 0 C3.50694939 2.14400516 5.72268743 4.68802651 8.1640625 8.015625 C8.58139648 8.57886475 8.99873047 9.14210449 9.42871094 9.72241211 C10.79499276 11.5792767 12.13800173 13.45119385 13.4765625 15.328125 C13.93691895 15.96975586 14.39727539 16.61138672 14.87158203 17.27246094 C17.90351724 21.50737971 20.89569053 25.76915265 23.87597656 30.04052734 C25.48219985 32.33618204 27.09909869 34.62395986 28.71875 36.91015625 C42.4705328 56.36526778 55.70249918 76.21743061 68.4765625 96.328125 C69.3123584 97.64248535 69.3123584 97.64248535 70.16503906 98.98339844 C99.22751401 144.80008599 126.95156045 192.29026187 144.59472656 243.79150391 C145.8245511 247.32912211 147.1429579 250.82844834 148.4765625 254.328125 C149.01023437 253.88082031 149.54390625 253.43351563 150.09375 252.97265625 C166.50178826 239.65886742 183.87085065 236.90130133 204.4765625 238.328125 C217.66027233 239.90735013 229.10790505 246.70014423 239.0078125 255.24609375 C247.08365206 262.05688882 254.83477812 264.63159647 265.15039062 265.91992188 C270.68077382 266.76054012 273.54230546 268.31079165 277.4765625 272.328125 C280.71969207 276.99598202 280.05889345 282.89788893 279.4765625 288.328125 C277.19362344 293.24522452 274.22087871 295.76619425 269.4765625 298.328125 C267.4965625 298.658125 265.5165625 298.988125 263.4765625 299.328125 C263.4765625 310.218125 263.4765625 321.108125 263.4765625 332.328125 C265.4565625 332.328125 267.4365625 332.328125 269.4765625 332.328125 C274.24710923 334.8088093 277.20610668 337.43791247 279.4765625 342.328125 C280.23037785 347.9278962 280.24959825 352.66312491 277.8515625 357.828125 C273.41247025 362.50085369 269.56412396 364.92925154 263.14453125 365.359375 C245.16877085 365.14882437 229.46865815 358.58360472 216.2265625 346.578125 C209.59341702 340.5741026 201.7570125 337.40992536 192.77734375 337.29296875 C181.51468007 337.93699833 173.835623 342.94176974 165.43359375 350.05859375 C152.65257006 360.60468433 136.0654104 366.09394474 119.49609375 365.16015625 C117.14613651 364.93145801 114.81333124 364.66416475 112.4765625 364.328125 C112.22003906 365.05644531 111.96351563 365.78476562 111.69921875 366.53515625 C106.99150896 377.2891898 96.03026856 387.40029987 87.4765625 395.328125 C86.8165625 395.328125 86.1565625 395.328125 85.4765625 395.328125 C85.79753906 396.03195312 86.11851562 396.73578125 86.44921875 397.4609375 C87.54924189 400.53096405 87.84224177 402.95006837 87.9140625 406.203125 C87.95402344 407.19054687 87.99398438 408.17796875 88.03515625 409.1953125 C87.01604502 414.91088739 83.87429033 418.28327181 79.3046875 421.69921875 C78.12263686 422.40615422 76.9292213 423.09434764 75.7265625 423.765625 C74.74864746 424.32793823 74.74864746 424.32793823 73.75097656 424.90161133 C60.26627529 432.51678408 46.46816631 438.39386433 31.4765625 442.328125 C30.68314453 442.53985352 29.88972656 442.75158203 29.07226562 442.96972656 C6.4204993 448.72849552 -21.8635585 449.34430679 -44.5234375 443.328125 C-45.71114746 443.02213379 -45.71114746 443.02213379 -46.92285156 442.70996094 C-83.55749123 433.05595348 -116.29940094 412.3013778 -138.5234375 381.328125 C-138.94431641 380.75545898 -139.36519531 380.18279297 -139.79882812 379.59277344 C-151.45759193 363.62689335 -159.65910973 345.46217381 -164.5234375 326.328125 C-164.73226562 325.51923828 -164.94109375 324.71035156 -165.15625 323.87695312 C-170.68226316 301.47561496 -171.31902234 275.48764078 -164.5234375 253.328125 C-164.22260254 252.32539551 -163.92176758 251.32266602 -163.61181641 250.28955078 C-158.68743016 234.13536573 -152.63173472 218.63611007 -145.5234375 203.328125 C-145.07129883 202.3469873 -144.61916016 201.36584961 -144.15332031 200.35498047 C-131.84669074 173.77625752 -117.68733769 148.36437542 -102.5234375 123.328125 C-101.8938916 122.28011719 -101.2643457 121.23210937 -100.61572266 120.15234375 C-90.39069322 103.13975916 -79.51956028 86.60403486 -68.43470764 70.14463806 C-65.80066325 66.23334901 -63.17993386 62.31359151 -60.56996155 58.38619995 C-56.35511301 52.04468023 -52.0928339 45.74350616 -47.7109375 39.515625 C-46.83381104 38.26676514 -46.83381104 38.26676514 -45.93896484 36.99267578 C-39.87758898 28.38171233 -33.7681424 19.80727357 -27.5234375 11.328125 C-27.11335449 10.76786621 -26.70327148 10.20760742 -26.28076172 9.63037109 C-19.41757061 0.32509909 -11.6037262 -5.50598095 0 0 Z " fill="#CBECFF" transform="translate(200.5234375,33.671875)"/>
<path d="M0 0 C3.50694939 2.14400516 5.72268743 4.68802651 8.1640625 8.015625 C8.58139648 8.57886475 8.99873047 9.14210449 9.42871094 9.72241211 C10.79499276 11.5792767 12.13800173 13.45119385 13.4765625 15.328125 C13.93691895 15.96975586 14.39727539 16.61138672 14.87158203 17.27246094 C17.90351724 21.50737971 20.89569053 25.76915265 23.87597656 30.04052734 C25.48219985 32.33618204 27.09909869 34.62395986 28.71875 36.91015625 C42.4705328 56.36526778 55.70249918 76.21743061 68.4765625 96.328125 C69.3123584 97.64248535 69.3123584 97.64248535 70.16503906 98.98339844 C99.22751401 144.80008599 126.95156045 192.29026187 144.59472656 243.79150391 C145.8245511 247.32912211 147.1429579 250.82844834 148.4765625 254.328125 C149.01023437 253.88082031 149.54390625 253.43351563 150.09375 252.97265625 C166.50178826 239.65886742 183.87085065 236.90130133 204.4765625 238.328125 C217.66027233 239.90735013 229.10790505 246.70014423 239.0078125 255.24609375 C247.08365206 262.05688882 254.83477812 264.63159647 265.15039062 265.91992188 C270.68077382 266.76054012 273.54230546 268.31079165 277.4765625 272.328125 C280.71969207 276.99598202 280.05889345 282.89788893 279.4765625 288.328125 C277.19362344 293.24522452 274.22087871 295.76619425 269.4765625 298.328125 C256.05492482 301.45293826 239.87144257 295.8216279 228.234375 289.171875 C223.96040703 286.31449132 220.1575547 282.951399 216.26953125 279.6015625 C207.09014061 272.1296669 197.05032148 270.34121532 185.4765625 271.328125 C178.00110271 272.91253966 172.95402758 277.15720503 167.2421875 282.0234375 C151.1165236 295.46149075 132.87353977 299.61600803 112.2578125 298.08984375 C98.23855953 296.22437864 86.83684448 289.34962247 76.18359375 280.40234375 C68.06406402 273.69115723 60.01345644 270.58586276 49.39453125 271.01171875 C39.55222015 272.0789573 33.55213259 276.00353212 26.1796875 282.28515625 C12.50104098 293.67676793 -2.40514818 298.84046946 -20.12890625 298.74609375 C-25.11077068 298.13267661 -28.28956528 296.11836233 -31.5234375 292.328125 C-34.6396174 287.47844104 -34.11060952 281.87281264 -33.5234375 276.328125 C-31.55853329 271.92673956 -28.99584406 269.31245232 -24.69140625 267.0546875 C-22.03136952 266.16321573 -19.63643148 266.02973451 -16.8359375 265.890625 C-5.89806981 265.22401366 1.36512121 260.73687274 9.33740234 253.56689453 C23.0723856 241.53812037 40.25529361 237.06569556 58.21142578 238.12548828 C74.88447986 239.61704194 88.43859359 247.27593084 100.81640625 258.12109375 C105.26297871 261.81024712 109.8377003 264.02970278 115.4765625 265.328125 C107.3503037 225.20472216 84.22394012 187.04799626 63.4765625 152.328125 C62.23532574 150.23458327 60.99444543 148.14083016 59.75390625 146.046875 C43.03335411 117.90920577 25.03397829 90.61561166 6.4609375 63.671875 C4.38803139 60.66466298 2.33934536 57.64259188 0.3046875 54.609375 C-0.20328369 53.8568042 -0.71125488 53.1042334 -1.23461914 52.32885742 C-2.1948839 50.9055313 -3.15008732 49.47877286 -4.09936523 48.0480957 C-5.18985529 46.43909749 -6.35003703 44.87769757 -7.5234375 43.328125 C-8.1834375 43.328125 -8.8434375 43.328125 -9.5234375 43.328125 C-10.84341767 44.85651063 -10.84341767 44.85651063 -12.140625 46.88671875 C-12.91768799 48.04059082 -12.91768799 48.04059082 -13.71044922 49.21777344 C-14.26748535 50.05856445 -14.82452148 50.89935547 -15.3984375 51.765625 C-16.58472764 53.53076162 -17.77225139 55.29506974 -18.9609375 57.05859375 C-19.56035156 57.94981934 -20.15976563 58.84104492 -20.77734375 59.75927734 C-23.25805731 63.40889537 -25.82787577 66.99157934 -28.3984375 70.578125 C-35.77243965 80.94198555 -42.64293267 91.63311435 -49.5234375 102.328125 C-50.10351562 103.22660156 -50.68359375 104.12507813 -51.28125 105.05078125 C-66.10497258 128.03093566 -80.33044183 151.3713709 -93.5234375 175.328125 C-94.0915918 176.35615234 -94.65974609 177.38417969 -95.24511719 178.44335938 C-110.89331469 206.83970233 -126.8821111 236.31260047 -133.5234375 268.328125 C-133.69641357 269.02099609 -133.86938965 269.71386719 -134.04760742 270.42773438 C-140.69997867 297.61594317 -131.65172305 328.96776216 -117.69726562 352.40527344 C-100.90179127 379.91799307 -73.92922964 401.15569978 -42.5234375 409.328125 C-41.8123584 409.52132324 -41.1012793 409.71452148 -40.36865234 409.91357422 C-6.63457688 418.79859732 27.72679296 412.45170564 57.66137695 395.38745117 C58.89687075 394.66642796 60.12439058 393.93160443 61.34448242 393.18481445 C66.3590419 390.16291966 69.76347747 389.47168447 75.4765625 390.328125 C80.59355411 392.19779501 84.98906663 395.35313326 87.4765625 400.328125 C87.75 402.90234375 87.75 402.90234375 87.8515625 406.015625 C87.90054687 407.03011719 87.94953125 408.04460937 88 409.08984375 C87.06180239 414.89406629 83.9292095 418.2422177 79.3046875 421.69921875 C78.12263686 422.40615422 76.9292213 423.09434764 75.7265625 423.765625 C74.74864746 424.32793823 74.74864746 424.32793823 73.75097656 424.90161133 C60.26627529 432.51678408 46.46816631 438.39386433 31.4765625 442.328125 C30.68314453 442.53985352 29.88972656 442.75158203 29.07226562 442.96972656 C6.4204993 448.72849552 -21.8635585 449.34430679 -44.5234375 443.328125 C-45.71114746 443.02213379 -45.71114746 443.02213379 -46.92285156 442.70996094 C-83.55749123 433.05595348 -116.29940094 412.3013778 -138.5234375 381.328125 C-138.94431641 380.75545898 -139.36519531 380.18279297 -139.79882812 379.59277344 C-151.45759193 363.62689335 -159.65910973 345.46217381 -164.5234375 326.328125 C-164.73226562 325.51923828 -164.94109375 324.71035156 -165.15625 323.87695312 C-170.68226316 301.47561496 -171.31902234 275.48764078 -164.5234375 253.328125 C-164.22260254 252.32539551 -163.92176758 251.32266602 -163.61181641 250.28955078 C-158.68743016 234.13536573 -152.63173472 218.63611007 -145.5234375 203.328125 C-145.07129883 202.3469873 -144.61916016 201.36584961 -144.15332031 200.35498047 C-131.84669074 173.77625752 -117.68733769 148.36437542 -102.5234375 123.328125 C-101.8938916 122.28011719 -101.2643457 121.23210937 -100.61572266 120.15234375 C-90.39069322 103.13975916 -79.51956028 86.60403486 -68.43470764 70.14463806 C-65.80066325 66.23334901 -63.17993386 62.31359151 -60.56996155 58.38619995 C-56.35511301 52.04468023 -52.0928339 45.74350616 -47.7109375 39.515625 C-46.83381104 38.26676514 -46.83381104 38.26676514 -45.93896484 36.99267578 C-39.87758898 28.38171233 -33.7681424 19.80727357 -27.5234375 11.328125 C-27.11335449 10.76786621 -26.70327148 10.20760742 -26.28076172 9.63037109 C-19.41757061 0.32509909 -11.6037262 -5.50598095 0 0 Z " fill="#1AADFF" transform="translate(200.5234375,33.671875)"/>
<path d="M0 0 C1.22976563 -0.05607422 1.22976563 -0.05607422 2.484375 -0.11328125 C8.84270437 0.86561409 12.80536401 4.42146426 16.57299805 9.3359375 C17.06453369 10.00882813 17.55606934 10.68171875 18.0625 11.375 C18.60237549 12.09816406 19.14225098 12.82132813 19.69848633 13.56640625 C31.84585311 30.08207139 43.33855607 47.36267451 53.25 65.3125 C53.66685059 66.05870605 54.08370117 66.80491211 54.51318359 67.57373047 C67.2406685 90.4832033 77.10920774 113.63136937 70.75 140.25 C64.95904316 158.57121537 52.9473757 175.11349524 35.7109375 184.25 C17.61616893 193.345217 -3.74644038 195.97017239 -23.3046875 189.69140625 C-42.48954319 182.01311367 -57.87818153 169.14517379 -66.44287109 149.96606445 C-73.36722118 133.67287738 -74.68726821 114.95940647 -68.34765625 98.2109375 C-67.82023363 96.90936798 -67.28754075 95.60992351 -66.75 94.3125 C-66.33983643 93.28624512 -66.33983643 93.28624512 -65.92138672 92.23925781 C-54.38375217 63.65308688 -36.87985735 37.99262966 -18.8125 13.1875 C-18.26416504 12.43057861 -17.71583008 11.67365723 -17.15087891 10.89379883 C-12.42828384 4.54182681 -8.28598178 0.2444622 0 0 Z " fill="#1AADFF" transform="translate(407.75,47.6875)"/>
<path d="M0 0 C0.78785889 0.00821777 1.57571777 0.01643555 2.38745117 0.02490234 C21.50727329 0.38819654 37.25578355 7.8291725 51.34375 20.67578125 C59.27216339 27.223221 68.30793253 27.92025174 78.25 27.25 C85.64228228 25.99850888 90.56264533 22.95222359 96.25 18.25 C113.19981078 4.90202401 129.54279931 -1.78703936 151.25 0.25 C166.22984312 2.19420677 179.09902216 8.74292865 189.8984375 19.19921875 C196.34087949 24.81762746 203.66972597 27.2496703 212.0625 27.5625 C219.29710629 28.05424461 222.63470573 29.49705867 227.625 34.75 C230.02303575 39.91500009 230.00381535 44.6502288 229.25 50.25 C226.97346185 55.15331294 224.05185929 57.8037698 219.25 60.25 C207.30129165 63.62520215 193.11696773 59.20774104 182.25 54.25 C176.35273449 50.89222682 171.02461791 47.05539289 166 42.5 C159.36685452 36.4959776 151.53045 33.33180036 142.55078125 33.21484375 C131.28811757 33.85887333 123.6090605 38.86364474 115.20703125 45.98046875 C102.88519954 56.14766322 86.17948243 62.30526382 70.09082031 61.08642578 C52.1859157 59.25396484 38.08118951 53.19370949 24.625 41 C16.90476729 34.17270987 7.79918267 32.86088139 -2.15234375 32.984375 C-11.40629339 33.66761992 -17.0764371 38.03707512 -23.95703125 43.9375 C-37.13536802 54.84879422 -52.99584872 61.20979833 -70.30859375 60.66796875 C-75.54542425 59.77142337 -79.33080167 57.18378064 -82.44140625 52.9453125 C-84.74391794 48.20282574 -84.36467065 43.39786668 -83.75 38.25 C-81.81395322 33.91325521 -79.30267937 31.27662449 -75.0625 29.046875 C-70.90156224 27.61303834 -66.53015044 27.33172067 -62.1796875 26.7890625 C-53.95425734 25.49622724 -48.64281236 21.56571458 -42.34375 16.3359375 C-30.15195505 6.53109036 -15.80499812 -0.20177321 0 0 Z " fill="#1AADFF" transform="translate(250.75,337.75)"/>
<path d="M0 0 C3.51280837 1.17093612 3.8823425 1.91619985 5.8203125 4.9453125 C6.35084229 5.76684814 6.88137207 6.58838379 7.42797852 7.43481445 C7.98799561 8.32257568 8.5480127 9.21033691 9.125 10.125 C9.70757568 11.03789795 10.29015137 11.9507959 10.89038086 12.89135742 C12.60418473 15.58772012 14.3040525 18.29238025 16 21 C16.42651855 21.67466309 16.85303711 22.34932617 17.29248047 23.04443359 C43.83589033 65.17088082 43.83589033 65.17088082 41 83 C38.78867492 90.9325406 35.61956447 97.93532151 30 104 C29.49984375 104.54140625 28.9996875 105.0828125 28.484375 105.640625 C21.04247999 112.79351438 10.24869832 116.34480473 0.1015625 116.2109375 C-11.47480441 115.42362791 -21.22169866 111.22289222 -29.3125 102.875 C-35.89878613 95.00878781 -39.47985054 84.86547534 -39.26171875 74.61328125 C-36.60439863 48.07974155 -14.93961951 21.00693437 0 0 Z " fill="#CBECFF" transform="translate(407,92)"/>
<path d="M0 0 C4.17475412 1.39158471 5.55060989 4.34987637 7.875 7.875 C8.86568007 9.3477944 9.8565742 10.82044482 10.84765625 12.29296875 C11.62326904 13.4538501 11.62326904 13.4538501 12.41455078 14.63818359 C14.48761193 17.7263871 16.59662127 20.78911665 18.70605469 23.85253906 C44.81070873 61.7955347 69.91904517 100.61982563 91.56445312 141.30517578 C93.02745904 144.05154641 94.50597811 146.78923352 95.984375 149.52734375 C105.88982009 168.02306796 114.75390668 187.01680841 121.75 206.8125 C122.08547852 207.75480469 122.42095703 208.69710937 122.76660156 209.66796875 C124.32303869 214.2482929 125.42184481 218.09199784 125 223 C115.32202702 222.490633 106.29705878 214.87692548 100 208 C98.06590279 204.7291662 96.82793749 201.32471511 95.5625 197.75 C85.80863359 172.50057266 72.77728699 148.25976754 59 125 C58.66184265 124.42785767 58.3236853 123.85571533 57.97528076 123.26623535 C55.30766957 118.75384776 52.6271513 114.24928303 49.9375 109.75 C49.57962402 109.15108948 49.22174805 108.55217896 48.85302734 107.93511963 C38.60812077 90.82350662 27.82507793 74.07658687 16.73608398 57.5012207 C14.93270266 54.80532841 13.13307459 52.10696049 11.33398438 49.40820312 C10.14845018 47.63280403 8.96290346 45.85741331 7.77734375 44.08203125 C7.20631927 43.22417023 6.6352948 42.3663092 6.04696655 41.48245239 C3.30648187 37.38014411 0.53045961 33.3159185 -2.35498047 29.31396484 C-2.8754747 28.58489426 -3.39596893 27.85582367 -3.93223572 27.10466003 C-4.9039845 25.75001105 -5.88795525 24.40401186 -6.88624573 23.06880188 C-8.82137115 20.36112188 -10.02062215 18.65884833 -9.91455078 15.27001953 C-8.56323128 11.91589013 -6.55188351 9.09194411 -4.4375 6.1875 C-4.01275391 5.59001953 -3.58800781 4.99253906 -3.15039062 4.37695312 C-2.10776741 2.91259467 -1.05489548 1.45554265 0 0 Z " fill="#FCFEFF" transform="translate(191,76)"/>
<path d="M0 0 C3.51280837 1.17093612 3.8823425 1.91619985 5.8203125 4.9453125 C6.61610718 6.17761597 6.61610718 6.17761597 7.42797852 7.43481445 C7.98799561 8.32257568 8.5480127 9.21033691 9.125 10.125 C9.70757568 11.03789795 10.29015137 11.9507959 10.89038086 12.89135742 C12.60418473 15.58772012 14.3040525 18.29238025 16 21 C16.42651855 21.67466309 16.85303711 22.34932617 17.29248047 23.04443359 C43.83589033 65.17088082 43.83589033 65.17088082 41 83 C37.94551518 93.95715194 33.01667467 102.13015263 24 109 C22.8694486 105.60834581 23.26608403 104.41495592 24 101 C24.43662332 93.72971408 24.09978144 86.97669318 22 80 C21.73960937 79.07960938 21.47921875 78.15921875 21.2109375 77.2109375 C15.38537323 58.93378547 5.10258123 41.76224727 -5.76928711 26.08007812 C-9.95463177 19.85988614 -9.95463177 19.85988614 -10.16796875 15.81640625 C-8.67438427 12.21481959 -6.74700148 9.25149205 -4.4375 6.125 C-4.01275391 5.53203125 -3.58800781 4.9390625 -3.15039062 4.328125 C-2.10989834 2.87845035 -1.0562628 1.43822449 0 0 Z " fill="#FCFEFF" transform="translate(407,92)"/>
<path d="M0 0 C2.903271 0.40510758 5.53513987 0.80630828 8.25 1.9375 C12.37389471 3.53082296 16.66096293 4.20802042 21 5 C16.26995693 15.39509465 3.69111173 33.50413383 -7.09765625 37.84375 C-9 38 -9 38 -11.4375 36.1875 C-12.283125 35.465625 -13.12875 34.74375 -14 34 C-15.65066713 33.29464885 -17.31591075 32.62134178 -19 32 C-18.59910156 31.3915625 -18.19820313 30.783125 -17.78515625 30.15625 C-13.22643328 23.1269266 -9.08065126 15.92423421 -5.015625 8.6015625 C-3.4018927 5.69775607 -1.73030631 2.83638818 0 0 Z " fill="#FBFDFF" transform="translate(293,392)"/>
</svg>
