<?xml version="1.0" encoding="UTF-8"?>
<svg version="1.1" xmlns="http://www.w3.org/2000/svg" width="512" height="512">
<path d="M0 0 C0.76828125 0.62648437 1.5365625 1.25296875 2.328125 1.8984375 C3.15828125 2.56617188 3.9884375 3.23390625 4.84375 3.921875 C19.39986875 16.29011087 29.82661196 33.86110437 31.62792969 53.10058594 C31.76464556 56.41469836 31.79601429 59.70669781 31.765625 63.0234375 C31.75732666 64.20268799 31.74902832 65.38193848 31.74047852 66.59692383 C31.23429683 93.00303526 20.64636874 115.99920469 2.328125 134.8984375 C1.8021875 135.49785156 1.27625 136.09726562 0.734375 136.71484375 C-13.2583245 152.09967406 -37.55770348 163.00502209 -58.21369934 164.02380371 C-61.35335282 164.10998789 -64.4923338 164.16740886 -67.6328125 164.21484375 C-68.77851715 164.23562485 -69.9242218 164.25640594 -71.10464478 164.27781677 C-74.75199586 164.34301968 -78.39941684 164.40206102 -82.046875 164.4609375 C-84.52474671 164.50415055 -87.00261144 164.54776572 -89.48046875 164.59179688 C-95.5441977 164.69867102 -101.60799563 164.80049099 -107.671875 164.8984375 C-106.93437012 165.81189941 -106.19686523 166.72536133 -105.43701172 167.66650391 C-95.27433544 180.35384769 -95.27433544 180.35384769 -91.796875 187.2734375 C-91.4352124 187.97549316 -91.0735498 188.67754883 -90.70092773 189.40087891 C-87.0969727 196.64114773 -84.68480248 204.08354257 -82.671875 211.8984375 C-82.30449219 213.22101563 -82.30449219 213.22101563 -81.9296875 214.5703125 C-77.1194719 235.2608289 -80.69718168 257.86707957 -91.671875 275.8984375 C-103.59226279 294.32037485 -121.28850943 306.30516601 -142.671875 310.8984375 C-160.52137978 313.87003103 -177.26005341 311.28724134 -192.359375 301.08203125 C-204.90959481 291.6119721 -213.10280068 278.68561685 -216.203125 263.2578125 C-217.95041064 250.73559876 -216.85285695 237.65962248 -209.671875 226.8984375 C-201.04920507 216.23738781 -191.44070298 208.34129408 -177.671875 205.8984375 C-175.031875 205.8984375 -172.391875 205.8984375 -169.671875 205.8984375 C-169.671875 216.1284375 -169.671875 226.3584375 -169.671875 236.8984375 C-174.126875 238.3834375 -174.126875 238.3834375 -178.671875 239.8984375 C-182.69934398 243.92590648 -184.47667082 246.71215072 -184.984375 252.3984375 C-184.91986263 258.19379862 -183.12363959 265.35304944 -179.03515625 269.59765625 C-178.36033203 270.24154297 -178.36033203 270.24154297 -177.671875 270.8984375 C-177.671875 271.5584375 -177.671875 272.2184375 -177.671875 272.8984375 C-177.094375 273.18589844 -176.516875 273.47335937 -175.921875 273.76953125 C-174.50094997 274.48246065 -173.08372249 275.20285238 -171.671875 275.93359375 C-171.011875 276.27261719 -170.351875 276.61164063 -169.671875 276.9609375 C-169.011875 277.30253906 -168.351875 277.64414062 -167.671875 277.99609375 C-159.01126336 281.90351814 -149.2686707 280.08021244 -140.671875 276.8984375 C-128.26683185 271.45852104 -119.79805993 262.94141592 -114.63671875 250.37890625 C-109.64195858 234.88353402 -112.66414331 217.88764743 -119.484375 203.4609375 C-123.47043792 196.05249733 -128.50243099 189.61645878 -134.671875 183.8984375 C-135.42597656 183.11919922 -135.42597656 183.11919922 -136.1953125 182.32421875 C-151.92534249 167.04067433 -173.47897575 164.72445793 -194.34587097 164.77818298 C-195.5762518 164.77732856 -196.80663263 164.77647413 -198.07429773 164.77559382 C-201.45853742 164.77424009 -204.84271824 164.77733244 -208.22695076 164.78237188 C-211.88800494 164.78671567 -215.5490575 164.78522718 -219.21011353 164.7844696 C-225.54290885 164.78394685 -231.87569383 164.78706765 -238.20848656 164.79270744 C-247.36448904 164.80085617 -256.52048654 164.80344111 -265.67649225 164.80469543 C-280.53376134 164.80688066 -295.39102492 164.81352638 -310.24829102 164.82299805 C-324.67537407 164.83218587 -339.10245562 164.83925999 -353.52954102 164.84350586 C-354.41976273 164.84376858 -355.30998445 164.84403131 -356.22718259 164.84430199 C-360.69344291 164.84560709 -365.15970323 164.84687078 -369.62596357 164.84811389 C-406.64127143 164.85847003 -443.65657242 164.87635035 -480.671875 164.8984375 C-480.671875 154.6684375 -480.671875 144.4384375 -480.671875 133.8984375 C-478.56236419 133.89512735 -476.45285337 133.89181721 -474.27941799 133.88840675 C-424.17917591 133.80948536 -374.07896074 133.72011742 -323.97875958 133.61838589 C-317.8093262 133.60586735 -311.63989265 133.59343452 -305.47045898 133.58105469 C-304.24226035 133.57858869 -303.01406173 133.5761227 -301.74864496 133.57358198 C-281.87421696 133.53388213 -261.99978331 133.50112252 -242.12533884 133.47093768 C-221.72513555 133.43979948 -201.32495625 133.40117995 -180.92477995 133.35564744 C-168.34162175 133.32779709 -155.75848106 133.30574909 -143.17530037 133.29117499 C-134.54099428 133.28061498 -125.90672215 133.26277359 -117.27244168 133.23927046 C-112.29449385 133.22593316 -107.31659351 133.21574481 -102.33862686 133.21422386 C-97.77279881 133.21275765 -93.20708494 133.2020588 -88.64129204 133.18430309 C-86.9977047 133.17949002 -85.3541035 133.17793998 -83.7105106 133.18015869 C-58.80436668 133.20823785 -37.47836268 128.80581267 -18.7734375 111.1015625 C-5.10437048 96.62843271 -0.11739507 78.28666461 -0.390625 58.875 C-0.73515922 49.67249092 -4.39168401 42.28743542 -9.671875 34.8984375 C-10.373125 33.8878125 -11.074375 32.8771875 -11.796875 31.8359375 C-17.61412653 25.14061027 -26.21344799 21.05619949 -34.671875 18.8984375 C-35.909375 18.558125 -35.909375 18.558125 -37.171875 18.2109375 C-46.04103866 17.10229204 -53.08367483 18.33963356 -60.921875 22.7109375 C-67.49242752 27.93751337 -71.20834074 34.04841686 -72.546875 42.3359375 C-72.9336019 47.05722843 -72.05767906 50.80450913 -69.671875 54.8984375 C-65.56529938 59.35700532 -63.11106892 59.28863902 -56.671875 60.8984375 C-56.671875 71.1284375 -56.671875 81.3584375 -56.671875 91.8984375 C-69.87869925 91.8984375 -81.16245765 88.40910243 -90.984375 79.1484375 C-100.16236314 69.27457731 -105.16643138 56.91481998 -104.87890625 43.375 C-103.50491024 26.93889676 -97.6064864 13.48898803 -85.671875 1.8984375 C-85.13175781 1.33769531 -84.59164063 0.77695313 -84.03515625 0.19921875 C-61.8653236 -21.07711939 -23.21724218 -17.60512735 0 0 Z " fill="#6BBEEE" transform="translate(480.671875,138.1015625)"/>
<path d="M0 0 C16.86564349 14.44534722 27.1484471 32.0368883 29.5859375 54.21484375 C31.29960559 80.69637097 22.99047058 107.08839873 5.5859375 127.21484375 C-11.33495154 146.1965071 -32.96208791 158.81827362 -58.4140625 162.21484375 C-61.99562874 162.35717076 -65.57406454 162.34543722 -69.15805054 162.33509827 C-70.24123491 162.33595269 -71.32441928 162.33680712 -72.44042742 162.33768743 C-76.07016505 162.33933462 -79.69985647 162.33383327 -83.32958984 162.32836914 C-85.93142699 162.32808708 -88.53326422 162.32824537 -91.13510132 162.32881165 C-96.73679457 162.32933554 -102.33847616 162.32620281 -107.94016647 162.32057381 C-116.03923088 162.31244056 -124.13828965 162.30984171 -132.23735769 162.30858582 C-145.37813098 162.30639817 -158.51889805 162.29974586 -171.65966797 162.2902832 C-184.42333953 162.28110167 -197.1870094 162.27402446 -209.95068359 162.26977539 C-210.73767409 162.26951267 -211.52466458 162.26924994 -212.33550327 162.26897926 C-216.28367426 162.2676742 -220.23184527 162.2664105 -224.18001628 162.26516736 C-256.92470306 162.25480368 -289.66938151 162.2369176 -322.4140625 162.21484375 C-322.4140625 152.31484375 -322.4140625 142.41484375 -322.4140625 132.21484375 C-317.76932861 132.20271347 -317.76932861 132.20271347 -313.03076172 132.19033813 C-284.58231882 132.11513485 -256.13392196 132.03020991 -227.6855402 131.93479214 C-223.95084215 131.92227448 -220.21614382 131.90984152 -216.48144531 131.89746094 C-215.36626022 131.89376195 -215.36626022 131.89376195 -214.22854614 131.88998823 C-202.2180946 131.850352 -190.20763374 131.81756441 -178.19715524 131.78734393 C-165.85731478 131.75614091 -153.51751352 131.71749428 -141.17771721 131.67205369 C-133.57410287 131.64428494 -125.97051693 131.6222021 -118.36686575 131.60758124 C-112.51925221 131.59571233 -106.67171243 131.57344655 -100.82414627 131.54746056 C-98.43784232 131.53844485 -96.05152318 131.53270872 -93.66520309 131.53063011 C-66.928754 131.50318779 -43.33568481 129.98543964 -22.828125 110.71484375 C-9.72520041 97.14547201 -2.69074885 80.42624778 -2.0390625 61.52734375 C-2.48575124 48.45684274 -7.37337232 37.78770716 -16.17578125 28.2890625 C-25.08412139 20.0336897 -36.83472666 15.77035948 -48.9140625 15.93359375 C-56.38524915 16.77410225 -63.29139902 19.72627574 -68.4140625 25.21484375 C-73.32611006 32.80375647 -75.33868253 39.12491729 -74.4140625 48.21484375 C-72.0974569 53.11535559 -69.13211512 55.61510047 -64.4140625 58.21484375 C-62.7640625 58.54484375 -61.1140625 58.87484375 -59.4140625 59.21484375 C-59.4140625 69.44484375 -59.4140625 79.67484375 -59.4140625 90.21484375 C-72.78545071 90.21484375 -83.6253773 86.12459746 -93.6640625 77.21875 C-104.5423391 65.99022586 -106.92157924 53.02551329 -106.69140625 38.08984375 C-106.10138187 22.91946577 -98.22671381 9.4817461 -87.4140625 -0.78515625 C-62.26830186 -22.30630274 -25.5061151 -19.95298193 0 0 Z " fill="#11A8FF" transform="translate(322.4140625,77.78515625)"/>
<path d="M0 0 C9.34470452 -0.27905344 18.68795867 -0.49175066 28.03593254 -0.62174606 C32.37767378 -0.68416728 36.71654914 -0.76868745 41.05664062 -0.90527344 C45.25202273 -1.03646648 49.44466502 -1.1075664 53.64194107 -1.13852692 C55.23619855 -1.16056215 56.83031936 -1.20360013 58.42339706 -1.26876068 C70.54285899 -1.7443832 70.54285899 -1.7443832 74.65481567 1.17479324 C78.03777126 4.37029332 80.54201519 8.0547076 83 12 C83.46383087 12.67990997 83.92766174 13.35981995 84.4055481 14.06033325 C98.70017332 35.71782028 104.84444116 62.26098858 99.91748047 87.87548828 C95.43702586 107.7070834 83.33959089 125.1500118 66.22900391 136.13720703 C48.35636526 147.01682497 27.92013112 150.97422057 7.3828125 146.03515625 C-8.92626732 141.04450249 -21.31207058 130.10721973 -29.3125 115.1875 C-35.46846032 102.0536664 -37.34222948 87.41251007 -32.8984375 73.44921875 C-28.16128231 60.53532176 -18.91775512 51.05993765 -6.55078125 45.10546875 C-0.17571265 42.3426136 4.86826773 42 12 42 C12 52.23 12 62.46 12 73 C9.03 73.99 6.06 74.98 3 76 C-1.02746898 80.02746898 -2.80479582 82.81371322 -3.3125 88.5 C-3.24798763 94.29536112 -1.45176459 101.45461194 2.63671875 105.69921875 C3.08660156 106.12847656 3.53648437 106.55773437 4 107 C4 107.66 4 108.32 4 109 C4.86625 109.43119141 4.86625 109.43119141 5.75 109.87109375 C7.17092503 110.58402315 8.58815251 111.30441488 10 112.03515625 C10.66 112.37417969 11.32 112.71320313 12 113.0625 C12.66 113.40410156 13.32 113.74570312 14 114.09765625 C22.66061164 118.00508064 32.4032043 116.18177494 41 113 C53.40504315 107.56008354 61.87381507 99.04297842 67.03515625 86.48046875 C72.02991642 70.98509652 69.00773169 53.98920993 62.1875 39.5625 C58.20143708 32.15405983 53.16944401 25.71802128 47 20 C46.49726563 19.48050781 45.99453125 18.96101563 45.4765625 18.42578125 C33.33378642 6.62766912 16.48175881 1.94088781 0 1 C0 0.67 0 0.34 0 0 Z " fill="#11A8FF" transform="translate(299,302)"/>
<path d="M0 0 C86.79 0 173.58 0 263 0 C263 10.23 263 20.46 263 31 C176.21 31 89.42 31 0 31 C0 20.77 0 10.54 0 0 Z " fill="#87DEFE" transform="translate(0,272)"/>
<path d="M0 0 C0 10.23 0 20.46 0 31 C-86.79 31 -173.58 31 -263 31 C-263 21.1 -263 11.2 -263 1 C-231.37276174 0.87231416 -199.7455225 0.74487486 -168.11828171 0.61781773 C-164.3797171 0.60279844 -160.64115249 0.58777688 -156.90258789 0.57275391 C-155.7862224 0.56826798 -155.7862224 0.56826798 -154.64730408 0.56369144 C-142.61541358 0.51533795 -130.58352383 0.46680058 -118.55163435 0.41819459 C-106.19488675 0.36828037 -93.83813836 0.3185653 -81.48138922 0.26903296 C-73.86394341 0.23849202 -66.24649825 0.20779795 -58.62905385 0.17690456 C-52.77629035 0.15318471 -46.92352575 0.12974267 -41.07076073 0.10640144 C-38.67834817 0.09681754 -36.28593597 0.08714515 -33.89352417 0.07737541 C-30.61377554 0.06399567 -27.33402576 0.05094167 -24.05427551 0.03796387 C-22.65197031 0.03212744 -22.65197031 0.03212744 -21.22133571 0.02617311 C-14.14738687 -0.00130594 -7.07416961 0 0 0 Z " fill="#6BBDEE" transform="translate(263,209)"/>
<path d="M0 0 C57.75 0 115.5 0 175 0 C175 10.23 175 20.46 175 31 C117.25 31 59.5 31 0 31 C0 20.77 0 10.54 0 0 Z " fill="#6BBDED" transform="translate(53,334)"/>
<path d="M0 0 C42.57 0 85.14 0 129 0 C129 10.23 129 20.46 129 31 C86.43 31 43.86 31 0 31 C0 20.77 0 10.54 0 0 Z " fill="#85DDFF" transform="translate(53,147)"/>
<path d="M0 0 C0.22379308 4.42880759 0.38636162 8.8545637 0.49438477 13.28735352 C0.53943718 14.79216867 0.60070654 16.2965943 0.67895508 17.80004883 C1.31567449 30.35548976 1.31567449 30.35548976 -1.93798828 34.42236328 C-4.34765625 36.23046875 -4.34765625 36.23046875 -6.75805664 37.58276367 C-11.36222156 40.49326976 -13.33106779 45.99320337 -15 51 C-15.50179253 56.24003023 -15.649025 60.62706251 -13.375 65.4375 C-9.21406072 69.92693448 -6.03072001 71.793856 0 73 C0 83.23 0 93.46 0 104 C-13.37138821 104 -24.2113148 99.90975371 -34.25 91.00390625 C-45.1282766 79.77538211 -47.50751674 66.81066954 -47.27734375 51.875 C-46.68731937 36.70462202 -38.81265131 23.26690235 -28 13 C-20.13814689 6.27138697 -10.68342467 -0.23288119 0 0 Z " fill="#6BBDEE" transform="translate(263,64)"/>
</svg>
